<svg xmlns="http://www.w3.org/2000/svg" viewBox="0 0 64 64" width="64" height="64"><path d="M32 56 C10.143966555967927 37.209623127803205, 3.1180021885782483 25.083644860610367, 12.207174957171082 16.542357605323197 M29.821066522970796 53.10213032327592 C8.674629058074206 40.85926230000332, 3.430483460258693 20.207110147345812, 18.912760079931466 17.4618183718808 M16 16 C21.936625850573183 6.86643301807344, 33.38821542300284 13.146683770045637, 31.072976112738253 23.429937988147138 M18.372263872995973 18.349413388594986 C26.53605670792982 6.813348480332643, 32.144494137000294 16.33648714112118, 33.533732998799536 21.28558505224064 M32 23 C35.06489954032004 16.765710788592695, 42.82547615803778 8.959624641761184, 51.17459918297827 18.277161544188857 M32.84108245410025 23.69114187322557 C29.352603509854525 19.82402418779209, 40.67156891210005 10.642955981362611, 45.82576684219762 13.511239721644671 M48 16 C56.413272488489746 23.876291888579726, 54.08575363196432 37.61356854997575, 32.3375446561724 55.218098097667095 M49.96747587956488 18.42818247638643 C55.95650518162176 22.101622063983232, 54.29865053458139 44.85995477842167, 36.13576529664919 54.44663455294445 M32 56 C32 56, 32 56, 32 56 M32 56 C32 56, 32 56, 32 56" fill="none" stroke="#6b6b73" stroke-width="2.6" stroke-linecap="round" stroke-linejoin="round"/></svg>
