<svg xmlns="http://www.w3.org/2000/svg" viewBox="0 0 64 64" width="64" height="64"><path d="M19.17796900055303 14.02112812373384 C19.17796900055303 14.02112812373384, 19.17796900055303 14.02112812373384, 19.17796900055303 14.02112812373384 M19.17796900055303 14.02112812373384 C19.17796900055303 14.02112812373384, 19.17796900055303 14.02112812373384, 19.17796900055303 14.02112812373384 M14.014968909291603 24.85463490197394 C18.012140817952528 20.547244728046, 22.067349585123754 16.2321299730196, 22.427649446618894 13.955480493677904 M13.129489899450965 25.437350884563813 C16.030897170070958 22.949523841032978, 17.090465966776293 20.618830073642332, 21.63839050034542 14.81688492672344 M13.205313395599152 30.943363683424323 C19.154486645809136 26.66994034207818, 21.149227571785666 21.13680697705918, 29.675915392638235 13.55050111798625 M12.776032316640269 30.516401259140476 C16.40635358219087 25.63963100928825, 21.176621644520473 21.178157387450568, 24.52759976438345 15.216809631204788 M15.96871992632611 32.010136615103015 C23.035555413901374 26.073020278674758, 28.442559368887594 18.192206687374522, 30.557271130343036 15.82305215321519 M12.111209564691915 33.727470170883365 C19.771654963029928 29.010261965050432, 24.96367919173462 18.778085686114586, 29.405527404842037 17.801678494401653 M16.63726085086784 39.538939436681915 C20.92918512302541 32.71221323215644, 23.635555893376875 20.57011587755712, 27.125572637220003 19.714826897867223 M14.201142268417987 36.65884599980747 C22.050082423135684 31.618478648674568, 26.581083229086133 27.091089954605614, 30.53490212553469 17.258557336181603 M15.627320101215233 41.07884722347079 C22.75657541577598 39.17902234317778, 26.769091169434137 30.370042840279627, 31.07990228856837 23.55126140279574 M14.884792737952163 40.14049515179066 C20.758746924109744 34.669655793526715, 26.693587868615598 29.086733140173326, 31.133741002966815 23.199844130071526 M37.715262022790185 15.560208176140959 C37.715262022790185 15.560208176140959, 37.715262022790185 15.560208176140959, 37.715262022790185 15.560208176140959 M37.715262022790185 15.560208176140959 C37.715262022790185 15.560208176140959, 37.715262022790185 15.560208176140959, 37.715262022790185 15.560208176140959 M20.84932425827421 41.63134688485911 C25.523408146013473 32.299456289055065, 31.338840818717262 33.957034489151724, 45.11642463848414 13.950272682321343 M18.125836442454528 40.950989453052486 C27.18390610308939 31.68342248448812, 34.48163952982542 21.389091360491935, 43.18500488091679 15.387155148957941 M19.923640634476097 44.346976793840355 C30.27814750752495 34.056612811473215, 39.77721413205615 22.85698496315221, 45.92454782461778 17.334032883082404 M18.469265697694272 45.21440339843167 C27.980199860340306 37.081376940868324, 34.06178949347737 28.14173871318905, 46.67772804478214 15.696440436837152 M18.96913788109915 46.554304822183795 C32.61803477549256 37.26505938178963, 41.11875585026633 26.263138594853213, 44.2081880838763 20.522821819163266 M23.955904364920126 47.95924534445966 C30.172030352283038 40.029396294743925, 36.78020308852638 31.086423269374116, 48.77063964560293 18.022157925307155 M23.719759410559128 47.21588967120596 C36.8399105613635 41.967909933581375, 43.03329952167659 26.63684078156584, 50.60990862761851 20.184925085543817 M23.455688288188465 49.238741717062375 C31.415625386922258 39.62528326644792, 39.43872343590323 32.85993124606835, 50.8682718888786 20.037909371457225 M23.547148289262267 50.51418983700056 C28.460966595731154 48.51455215488381, 38.47222506823724 37.023802389769926, 53.92400008926961 20.683704713763344 M25.513167028046162 51.0047296744429 C34.87710326508706 44.01675958280118, 40.37629571882595 35.758456976616635, 51.82004846467498 23.434833906436015 M30.467088208614815 53.54377319066138 C35.60130945520195 43.361564776297186, 45.245543261302345 38.96815189846301, 52.77562984321688 27.913293789470064 M28.36019483254008 54.89361668730439 C37.845879823935846 44.1476040302855, 47.856155755761634 32.4508072434025, 52.40568386651998 22.65105265300112 M27.602003485023033 56.04881697828217 C37.33703374177595 45.91342507886211, 46.441563516077515 38.46434479885679, 48.75457462793304 30.84732099531713 M32.384680637217116 55.45763053884996 C36.64791715510555 48.60052014074092, 43.43525812622148 40.72636789848796, 51.675166014526916 30.71414326841506" fill="none" stroke="#e63b3b" stroke-width="2" stroke-linecap="round" stroke-linejoin="round"/><path d="M32 56 C10.143966555967927 37.209623127803205, 3.1180021885782483 25.083644860610367, 12.207174957171082 16.542357605323197 M29.821066522970796 53.10213032327592 C8.674629058074206 40.85926230000332, 3.430483460258693 20.207110147345812, 18.912760079931466 17.4618183718808 M16 16 C21.936625850573183 6.86643301807344, 33.38821542300284 13.146683770045637, 31.072976112738253 23.429937988147138 M18.372263872995973 18.349413388594986 C26.53605670792982 6.813348480332643, 32.144494137000294 16.33648714112118, 33.533732998799536 21.28558505224064 M32 23 C35.06489954032004 16.765710788592695, 42.82547615803778 8.959624641761184, 51.17459918297827 18.277161544188857 M32.84108245410025 23.69114187322557 C29.352603509854525 19.82402418779209, 40.67156891210005 10.642955981362611, 45.82576684219762 13.511239721644671 M48 16 C56.413272488489746 23.876291888579726, 54.08575363196432 37.61356854997575, 32.3375446561724 55.218098097667095 M49.96747587956488 18.42818247638643 C55.95650518162176 22.101622063983232, 54.29865053458139 44.85995477842167, 36.13576529664919 54.44663455294445 M32 56 C32 56, 32 56, 32 56 M32 56 C32 56, 32 56, 32 56" fill="none" stroke="#b3161b" stroke-width="2.6" stroke-linecap="round" stroke-linejoin="round"/></svg>
