<svg xmlns="http://www.w3.org/2000/svg" viewBox="0 0 960 360" width="960" height="360"><path d="M25.143918339908122 22.882185705006123 C206.83126608133318 21.96007570763826, 390.3611110761762 22.098716826641557, 935.4163670226932 24.25255242139101 M24.691743043810128 24.728467758744955 C238.8693614087999 16.018507458680865, 453.1646105416119 15.805388452523946, 935.6927062787115 24.22477968558669 M937.2892712838902 25.078829463036627 C942.684813486051 148.65464076320907, 942.1240155702709 271.71952819237777, 934.9957203886495 333.7703844974688 M934.9649482558551 22.870123984006753 C933.1187400816414 134.70274152059937, 932.0614212418694 244.2970621231748, 936.6785483671302 335.8212217432422 M935.6646541759371 337.3217266634107 C595.8414852827786 347.7957146629453, 257.9318097367882 346.21269745675323, 24.16081806868315 335.6489934042096 M935.6978462256491 336.3351583085954 C629.6716818802058 328.07205604800583, 325.4940565057098 327.2831695247591, 24.26275751963258 336.3682301841676 M24.10464667428411 337.2894223681765 C26.785967469134416 224.11176487146517, 22.425229893463555 117.3654202044338, 21.874108571246133 22.192676221978132 M24.56710463512947 337.39869993473656 C17.77387544627051 274.30495927481684, 17.155591801019163 210.4433036094444, 25.209952569028754 25.238747587045996" fill="none" stroke="#1f2233" stroke-width="3" stroke-linecap="round" stroke-linejoin="round"/><path d="M148.40067530721427 248.99775453954936 C283.4301481995732 255.02546828824282, 414.1048466168344 254.8227853639722, 808.755869923532 248.99707881361246 M149.56747284606098 249.88175221011042 C379.9066745836288 258.0187739073932, 611.7752777189016 258.0286072671115, 809.9499039955438 249.4157688908279" fill="none" stroke="#1f2233" stroke-width="4" stroke-linecap="round" stroke-linejoin="round"/><path d="M837.143580686301 67.78330843523145 C843.1325810572505 65.31189135047792, 846.4906856013835 60.751658143430944, 867.2384320609272 56.35401301458478 M840.1080066207796 71.58759165368974 C845.3246979641169 67.19863281576336, 853.543672882989 63.555706320986154, 864.5177542809397 54.516895240172744" fill="none" stroke="#1f2233" stroke-width="2" stroke-linecap="round" stroke-linejoin="round"/><path d="M852.8581075817347 87.71107791364193 C856.6833637232482 80.66285754221677, 859.9608724134565 80.71609572100638, 873.6512427479029 79.13868401944637 M850.8106754943728 84.11678887158632 C858.9250992601812 82.76321532917022, 863.5212142868043 81.06420414489507, 877.3570057079196 80.02252698689699" fill="none" stroke="#1f2233" stroke-width="2" stroke-linecap="round" stroke-linejoin="round"/><path d="M110.57263447716832 71.63884739205241 C102.07855615448952 69.67355364897847, 102.87431812044977 61.5398316372335, 86.06405343487859 57.923355024307966 M111.51334436796606 68.6459860894829 C102.59270922972262 65.35063171119988, 95.69988005070388 58.74575421990455, 84.1962571348995 53.52815873362124" fill="none" stroke="#1f2233" stroke-width="2" stroke-linecap="round" stroke-linejoin="round"/></svg>
